<?xml version="1.0" encoding="UTF-8" standalone="no"?>
<!-- Created with Inkscape (http://www.inkscape.org/) -->

<svg
   xmlns:dc="http://purl.org/dc/elements/1.1/"
   xmlns:cc="http://creativecommons.org/ns#"
   xmlns:rdf="http://www.w3.org/1999/02/22-rdf-syntax-ns#"
   xmlns:svg="http://www.w3.org/2000/svg"
   xmlns="http://www.w3.org/2000/svg"
   version="1.1"
   width="57.63702"
   height="39.741375"
   id="svg2">
  <defs
     id="defs4" />
  <metadata
     id="metadata7">
    <rdf:RDF>
      <cc:Work
         rdf:about="">
        <dc:format>image/svg+xml</dc:format>
        <dc:type
           rdf:resource="http://purl.org/dc/dcmitype/StillImage" />
        <dc:title></dc:title>
      </cc:Work>
    </rdf:RDF>
  </metadata>
  <g
     transform="translate(-601.00735,-739.7545)"
     id="layer1">
    <path
       d="m 601.04374,778.20205 c -0.61524,-1.60328 6.73347,-15.68896 9.7687,-18.72419 1.63788,-1.63788 3.62928,-1.84364 17.84364,-1.84364 8.8,0 16,-0.25522 16,-0.56715 0,-0.31194 -1.4625,-2.00306 -3.25,-3.75806 -1.7875,-1.75499 -3.78604,-4.08728 -4.44119,-5.18285 -0.99796,-1.66881 -1.20074,-1.7205 -1.25,-0.31867 -0.0323,0.92031 1.10619,3.05781 2.53008,4.75 l 2.5889,3.07673 -10.0889,0 c -7.54077,0 -10.08889,-0.32391 -10.08889,-1.28249 0,-0.70537 1.9125,-4.19287 4.25,-7.75 l 4.25,-6.46751 14.75,-0.27673 c 13.57299,-0.25465 14.74906,-0.13496 14.73822,1.5 -0.006,0.9772 -2.69295,5.93923 -5.96994,11.02673 l -5.95815,9.25 -16.1134,0 c -8.86237,0 -15.9634,0.39555 -15.78006,0.879 0.67852,1.78926 8.00847,9.2792 8.55052,8.73715 0.30894,-0.30895 -0.64894,-2.14896 -2.12863,-4.08893 l -2.69034,-3.52722 10.05089,0 c 8.0888,0 10.05089,0.28156 10.05089,1.44232 0,0.79327 -2.14278,4.28077 -4.76174,7.75 l -4.76174,6.30768 -13.75877,0.27835 c -11.44006,0.23145 -13.85504,0.0274 -14.33009,-1.21052 z"
       id="path3781"
       style="fill:#ab2a33" />
  </g>
</svg>
